<?xml version="1.0" encoding="UTF-8" standalone="no"?>
<!DOCTYPE svg PUBLIC "-//W3C//DTD SVG 1.1//EN" "http://www.w3.org/Graphics/SVG/1.1/DTD/svg11.dtd">
<svg width="100%" height="100%" viewBox="0 0 42 42" version="1.1" xmlns="http://www.w3.org/2000/svg" xmlns:xlink="http://www.w3.org/1999/xlink" xml:space="preserve" xmlns:serif="http://www.serif.com/" style="fill-rule:evenodd;clip-rule:evenodd;stroke-linejoin:round;stroke-miterlimit:2;">
    <g transform="matrix(1,0,0,1,0.992675,3.00002)">
        <path d="M11.308,32.655L8.055,27.021L12.829,18.777L15.862,24.031L33.767,24.021L28.686,32.733L11.308,32.655Z" style="fill:rgb(255,173,100);fill-rule:nonzero;"/>
    </g>
    <g transform="matrix(1,0,0,1,0.992675,3.00002)">
        <path d="M36.964,18.427L33.712,24.061L24.185,24.049L27.219,18.796L18.258,3.294L28.342,3.338L36.964,18.427Z" style="fill:rgb(173,212,211);fill-rule:nonzero;"/>
    </g>
    <g transform="matrix(1,0,0,1,0.992675,3.00002)">
        <path d="M11.809,3.264L18.314,3.264L23.068,11.52L17.001,11.52L8.057,27.031L3.053,18.275L11.809,3.264Z" style="fill:rgb(251,131,81);fill-rule:nonzero;"/>
    </g>
    <g transform="matrix(1,0,0,1,0.992675,3.00002)">
        <path d="M19.107,1.96L19.088,1.926L11.041,1.926L1.508,18.268L8.051,29.718L8.06,29.705L10.533,33.989L29.453,34.074L36.097,22.682L36.053,22.682L38.507,18.431L29.121,2.004L19.107,1.96ZM25.332,12.858L25.382,12.858L20.652,4.643L27.564,4.673L35.421,18.424L32.962,22.684L26.517,22.687L28.764,18.795L25.332,12.858ZM17.468,4.602L20.694,10.182L16.228,10.182L8.582,23.441L8.061,24.342L4.598,18.282L12.578,4.602L17.468,4.602ZM14.367,18.766L17.774,12.858L22.241,12.858L25.673,18.796L23.426,22.689L16.634,22.692L14.367,18.766ZM9.604,27.027L10.9,24.779L12.827,21.45L15.089,25.369L21.88,25.366L21.869,25.385L31.416,25.396L27.92,31.391L12.082,31.32L9.604,27.027Z" style="fill:rgb(51,50,55);"/>
    </g>
</svg>
